<?xml version="1.0" encoding="utf-8"?>
<!-- Svg Vector Icons : http://www.onlinewebfonts.com/icon -->
<!DOCTYPE svg PUBLIC "-//W3C//DTD SVG 1.1//EN" "http://www.w3.org/Graphics/SVG/1.1/DTD/svg11.dtd">
<svg version="1.1" xmlns="http://www.w3.org/2000/svg" xmlns:xlink="http://www.w3.org/1999/xlink" x="0px" y="0px" viewBox="0 0 1000 1000" enable-background="new 0 0 1000 1000" xml:space="preserve">
<metadata> Svg Vector Icons : http://www.onlinewebfonts.com/icon </metadata>
<g><g><g><circle cx="301.4" cy="101.3" r="91.3"/><path d="M875.1,884.7C766.3,722.4,641.9,511,621,475.3c-1.9-6.5-4.4-13-7.8-19.7c-24.8-48.4-50.8-96.3-77.3-143.8c28.1,2.2,56.3,4.4,84.3,6.6c19.3,38.1,38.5,76.1,57.8,114.2c31,61.3,122.9,7.4,91.9-53.8c-24.8-49.1-54.3-159.5-118.4-164.5c-68.2-5.3-136.5-10.6-204.7-15.9c-1.7-0.1-3.1,0.1-4.7,0.1c-51.6-13.8-112,22.6-123,75.2c-34.9,75.5-85,134.5-169,159.1c-65.8,19.2-37.8,122,28.3,102.7c83.1-24.3,142.7-71.9,188-134.6c27.4,48.8,54.1,98,79.8,147.8c-56.4,38.9-105.6,85.9-148.8,140.1c-12,15.1-14.1,30.7-10.1,44.4c-0.2,5.1,0.2,10.4,1.6,16.2c16.6,65.7,33.2,131.4,49.8,197c17.6,70,128.4,50.1,110.6-20.3c-15.8-62.6-31.6-125.2-47.4-187.8c39.6-46.7,86.4-87.4,139.8-117.8c12.6-7.2,20.5-17,24.9-27.9c73.1,112,146.1,266.9,219.2,360.8C830.5,1010.7,919.7,942.1,875.1,884.7z"/></g></g><g></g><g></g><g></g><g></g><g></g><g></g><g></g><g></g><g></g><g></g><g></g><g></g><g></g><g></g><g></g></g>
</svg>
